<svg width="4123" height="1287" viewBox="0 0 4123 1287" fill="none" xmlns="http://www.w3.org/2000/svg">
<rect width="4123" height="1287" fill="white"/>
<path fill-rule="evenodd" clip-rule="evenodd" d="M1038 644V979V984V1044H1059.9C1080.94 1044 1098 1026.94 1098 1005.9V644C1098 423.086 918.914 244 698 244C477.086 244 298 423.086 298 644V1005.9C298 1026.94 315.056 1044 336.095 1044H358V984V979V644C358 456.223 510.223 304 698 304C885.777 304 1038 456.223 1038 644Z" fill="black"/>
<path fill-rule="evenodd" clip-rule="evenodd" d="M1698 514V309V304V244H1669.9C1652.28 244 1638 258.284 1638 275.905V514C1638 734.914 1817.09 914 2038 914C2258.91 914 2438 734.914 2438 514V275.905C2438 258.284 2423.72 244 2406.1 244H2378V304V309V514C2378 701.777 2225.78 854 2038 854C1850.22 854 1698 701.777 1698 514Z" fill="black"/>
<rect x="2008" y="863" width="60" height="181" rx="30" fill="black"/>
<path fill-rule="evenodd" clip-rule="evenodd" d="M3368 644C3368 459.568 3221.15 309.434 3038 304.144V304H2978V265.429C2978 253.594 2987.59 244 2999.43 244H3028C3248.91 244 3428 423.086 3428 644C3428 864.914 3248.91 1044 3028 1044H2999.43C2987.59 1044 2978 1034.41 2978 1022.57V984H3038V983.856C3221.15 978.566 3368 828.432 3368 644Z" fill="black"/>
<path fill-rule="evenodd" clip-rule="evenodd" d="M3436 644C3436 459.568 3582.85 309.434 3766 304.144V304H3826V265.429C3826 253.594 3816.41 244 3804.57 244H3776C3555.09 244 3376 423.086 3376 644C3376 864.914 3555.09 1044 3776 1044H3804.57C3816.41 1044 3826 1034.41 3826 1022.57V984H3766V983.856C3582.85 978.566 3436 828.432 3436 644Z" fill="black"/>
</svg>
